<?xml version="1.0" encoding="UTF-8"?>
<svg width="256px" height="256px" viewBox="0 0 256 256" version="1.1" xmlns="http://www.w3.org/2000/svg" xmlns:xlink="http://www.w3.org/1999/xlink" preserveAspectRatio="xMidYMid">
    <title>Spotify</title>
    <g>
        <path d="M127.999236,0 C57.3087105,0 0,57.3085507 0,128.000764 C0,198.693705 57.3087105,256 127.999236,256 C198.693705,256 256,198.693705 256,128.000764 C256,57.3085507 198.693705,0 127.999236,0 Z M186.778893,184.611187 C184.486422,188.546182 179.333074,189.621754 175.397045,187.316698 C145.527383,169.523487 107.635131,165.387469 63.2157413,175.735328 C58.7497625,176.843289 54.2945257,173.94502 53.1842778,169.472499 C52.0661524,164.997445 54.9614946,160.544675 59.4345667,159.433181 C108.521103,148.041808 150.562359,152.776719 184.069778,172.842131 C188.008339,175.144654 189.080797,180.3009 186.778893,184.611187 Z M202.725256,149.880452 C199.778864,154.786029 193.384855,156.135382 188.488751,153.179867 C154.160973,132.889406 101.419512,126.855927 60.9919513,139.521754 C55.4978061,141.088342 49.6592562,137.972617 48.0872952,132.484861 C46.5264176,126.984041 49.6381193,121.149024 55.1300431,119.574969 C101.419512,105.200853 159.749381,111.992272 199.086101,135.095301 C203.984738,138.050816 205.334091,144.441293 202.725256,149.880452 Z M203.767815,113.730737 C162.53004,90.2280124 94.4303365,87.9860741 55.1300431,100.153272 C48.5995867,102.036159 41.7046478,98.2668928 39.8251556,91.7341489 C37.9433727,85.1902543 41.7126259,78.2975735 48.2431903,76.4078471 C93.4665432,62.5324672 168.790273,65.1489179 216.025588,92.3315872 C221.903762,95.8294329 223.661933,103.456887 220.164087,109.326599 C216.674708,115.195271 209.035603,116.956975 203.767815,113.730737 Z" fill="#1DB954"></path>
    </g>
</svg>